<?xml version="1.0" encoding="UTF-8"?>
<svg id="_レイヤー_2" data-name="レイヤー 2" xmlns="http://www.w3.org/2000/svg" viewBox="0 0 66.34 64.12">
  <defs>
    <style>
      .cls-1 {
        fill: #c2ea19;
      }
    </style>
  </defs>
  <g id="_レイヤー_2-2" data-name="レイヤー 2">
    <g>
      <path d="M45.22,19.25h-15.48s-27.88,0-27.88,0v33.22c0,2.27,1.58,4.01,3.83,4.28h30.7c.66,0,1.04.38,1.02.96-.02.54-.38.9-1.03.9H5.64c-3.04-.24-5.3-2.5-5.64-5.54L.03,11.34c0-3.3,3.05-5.69,6.15-5.68h3.83s.02-3.08.02-3.08c0-1.21.87-2.17,1.98-2.47,1.65-.44,3.46.62,3.49,2.39l.05,3.17h25.04s.04-3.21.04-3.21c.02-1.4,1.35-2.4,2.63-2.45s2.83.88,2.85,2.33l.05,3.33,4.83.03c2.79.02,5.59,2.43,5.59,5.39l.06,22.42c0,.52-.59.78-.94.77s-.92-.29-.92-.77v-14.23s-9.57,0-9.57,0ZM13.72,10.01V2.73c0-.53-.53-.89-.92-.89s-.95.35-.95.87v7.25c-.01.58.46.95.95.94.35,0,.93-.33.93-.9ZM44.32,9.91V2.82c0-.58-.41-.99-.93-.98-.41,0-.92.34-.92.88v7.23c-.01.59.42.96.91.95.52,0,.94-.34.94-1ZM46.12,10.4c-.14,1.53-1.61,2.46-2.97,2.33s-2.51-1.18-2.53-2.64l-.02-2.56H15.56s-.04,2.54-.04,2.54c-.02,1.45-1.21,2.57-2.6,2.66-1.32.09-2.81-.83-2.85-2.28l-.08-2.92h-4.4c-1.99.23-3.69,1.83-3.69,3.92v5.96s49.15,0,49.15,0l3.75-.03-.04-6.06c-.01-1.94-1.73-3.74-3.66-3.75l-4.92-.03-.06,2.87Z"/>
      <path d="M66.34,50.27c0,7.65-6.2,13.85-13.85,13.85s-13.85-6.2-13.85-13.85,6.2-13.85,13.85-13.85,13.85,6.2,13.85,13.85ZM64.48,50.27c0-6.62-5.37-11.99-11.99-11.99s-11.99,5.37-11.99,11.99,5.37,11.99,11.99,11.99,11.99-5.37,11.99-11.99Z"/>
      <path d="M15.94,34.73h-7.02c-.58,0-.99-.39-.99-.97v-7.14c0-.57.65-.85,1.1-.84h6.89c.55,0,.96.45.96.98v7.1c0,.47-.48.87-.94.87ZM9.78,27.62v5.28s5.3,0,5.3,0v-5.28s-5.3,0-5.3,0Z"/>
      <path class="cls-1" d="M30.62,34.73h-7.02c-.58,0-.99-.39-.99-.97v-7.14c0-.57.65-.85,1.1-.84h6.89c.55,0,.96.45.96.98v7.1c0,.47-.48.87-.94.87ZM24.45,27.62v5.28s5.3,0,5.3,0v-5.28s-5.3,0-5.3,0Z"/>
      <path d="M16.07,49.13h-7.23c-.52-.01-.91-.44-.91-.94v-6.91c-.01-.66.44-1.09,1.11-1.09h6.76c.6,0,1.07.37,1.08,1v6.99c0,.46-.32.82-.81.95ZM9.77,42.03v5.27s5.31,0,5.31,0v-5.27s-5.31,0-5.31,0Z"/>
      <path d="M31.16,49.11h-7.27c-.52.02-.92-.43-.92-.92v-7.03c0-.54.47-.96,1-.96h6.89c.55,0,1.1.36,1.11.97v7.02c.01.39-.27.92-.81.92ZM24.81,42.03v5.27h5.36v-5.27h-5.36Z"/>
      <path d="M46.05,34.73h-7.04c-.61,0-1.01-.38-1.01-.97v-7.03c0-.51.36-.95.9-.95h7.1c.43,0,.89.38.89.83v7.14c.01.5-.3.88-.85.97ZM45.08,27.62h-5.28s0,5.27,0,5.27h5.28s0-5.27,0-5.27Z"/>
      <path d="M57.21,53.72l-4.84-1.89c-.49-.19-.87-.47-.87-1.06v-7.72c-.01-.51.37-.88.81-.98.33-.07,1.01.21,1.01.7v7.42s4.55,1.82,4.55,1.82c.43.17.57.74.44,1.14-.1.31-.61.76-1.1.57Z"/>
    </g>
  </g>
</svg>